mtllib high_gain_antenna.mtl
usemtl propeller
s off
o boom
v 0.460000 0.080000 0.460000
vt 0.700000 0.700000
vn 0.000000 0.000000 -1.000000
v 0.460000 0.620000 0.460000
vt 0.880000 0.700000
vn 0.000000 0.000000 -1.000000
v 0.540000 0.620000 0.460000
vt 0.880000 0.900000
vn 0.000000 0.000000 -1.000000
f 1/1/1 2/2/2 3/3/3
v 0.460000 0.080000 0.460000
vt 0.700000 0.700000
vn 0.000000 0.000000 -1.000000
v 0.540000 0.620000 0.460000
vt 0.880000 0.900000
vn 0.000000 0.000000 -1.000000
v 0.540000 0.080000 0.460000
vt 0.700000 0.900000
vn 0.000000 0.000000 -1.000000
f 4/4/4 5/5/5 6/6/6
v 0.460000 0.080000 0.540000
vt 0.700000 0.700000
vn 0.000000 0.000000 1.000000
v 0.540000 0.080000 0.540000
vt 0.880000 0.700000
vn 0.000000 0.000000 1.000000
v 0.540000 0.620000 0.540000
vt 0.880000 0.900000
vn 0.000000 0.000000 1.000000
f 7/7/7 8/8/8 9/9/9
v 0.460000 0.080000 0.540000
vt 0.700000 0.700000
vn 0.000000 0.000000 1.000000
v 0.540000 0.620000 0.540000
vt 0.880000 0.900000
vn 0.000000 0.000000 1.000000
v 0.460000 0.620000 0.540000
vt 0.700000 0.900000
vn 0.000000 0.000000 1.000000
f 10/10/10 11/11/11 12/12/12
v 0.460000 0.080000 0.460000
vt 0.700000 0.700000
vn -1.000000 0.000000 0.000000
v 0.460000 0.080000 0.540000
vt 0.880000 0.700000
vn -1.000000 0.000000 0.000000
v 0.460000 0.620000 0.540000
vt 0.880000 0.900000
vn -1.000000 0.000000 0.000000
f 13/13/13 14/14/14 15/15/15
v 0.460000 0.080000 0.460000
vt 0.700000 0.700000
vn -1.000000 0.000000 0.000000
v 0.460000 0.620000 0.540000
vt 0.880000 0.900000
vn -1.000000 0.000000 0.000000
v 0.460000 0.620000 0.460000
vt 0.700000 0.900000
vn -1.000000 0.000000 0.000000
f 16/16/16 17/17/17 18/18/18
v 0.540000 0.080000 0.460000
vt 0.700000 0.700000
vn 1.000000 0.000000 0.000000
v 0.540000 0.620000 0.460000
vt 0.880000 0.700000
vn 1.000000 0.000000 0.000000
v 0.540000 0.620000 0.540000
vt 0.880000 0.900000
vn 1.000000 0.000000 0.000000
f 19/19/19 20/20/20 21/21/21
v 0.540000 0.080000 0.460000
vt 0.700000 0.700000
vn 1.000000 0.000000 0.000000
v 0.540000 0.620000 0.540000
vt 0.880000 0.900000
vn 1.000000 0.000000 0.000000
v 0.540000 0.080000 0.540000
vt 0.700000 0.900000
vn 1.000000 0.000000 0.000000
f 22/22/22 23/23/23 24/24/24
v 0.460000 0.080000 0.460000
vt 0.700000 0.700000
vn 0.000000 -1.000000 0.000000
v 0.540000 0.080000 0.460000
vt 0.880000 0.700000
vn 0.000000 -1.000000 0.000000
v 0.540000 0.080000 0.540000
vt 0.880000 0.900000
vn 0.000000 -1.000000 0.000000
f 25/25/25 26/26/26 27/27/27
v 0.460000 0.080000 0.460000
vt 0.700000 0.700000
vn 0.000000 -1.000000 0.000000
v 0.540000 0.080000 0.540000
vt 0.880000 0.900000
vn 0.000000 -1.000000 0.000000
v 0.460000 0.080000 0.540000
vt 0.700000 0.900000
vn 0.000000 -1.000000 0.000000
f 28/28/28 29/29/29 30/30/30
v 0.460000 0.620000 0.460000
vt 0.700000 0.700000
vn 0.000000 1.000000 0.000000
v 0.460000 0.620000 0.540000
vt 0.880000 0.700000
vn 0.000000 1.000000 0.000000
v 0.540000 0.620000 0.540000
vt 0.880000 0.900000
vn 0.000000 1.000000 0.000000
f 31/31/31 32/32/32 33/33/33
v 0.460000 0.620000 0.460000
vt 0.700000 0.700000
vn 0.000000 1.000000 0.000000
v 0.540000 0.620000 0.540000
vt 0.880000 0.900000
vn 0.000000 1.000000 0.000000
v 0.540000 0.620000 0.460000
vt 0.700000 0.900000
vn 0.000000 1.000000 0.000000
f 34/34/34 35/35/35 36/36/36
o yoke
v 0.300000 0.580000 0.460000
vt 0.400000 0.400000
vn 0.000000 0.000000 -1.000000
v 0.300000 0.660000 0.460000
vt 0.600000 0.400000
vn 0.000000 0.000000 -1.000000
v 0.700000 0.660000 0.460000
vt 0.600000 0.600000
vn 0.000000 0.000000 -1.000000
f 37/37/37 38/38/38 39/39/39
v 0.300000 0.580000 0.460000
vt 0.400000 0.400000
vn 0.000000 0.000000 -1.000000
v 0.700000 0.660000 0.460000
vt 0.600000 0.600000
vn 0.000000 0.000000 -1.000000
v 0.700000 0.580000 0.460000
vt 0.400000 0.600000
vn 0.000000 0.000000 -1.000000
f 40/40/40 41/41/41 42/42/42
v 0.300000 0.580000 0.540000
vt 0.400000 0.400000
vn 0.000000 0.000000 1.000000
v 0.700000 0.580000 0.540000
vt 0.600000 0.400000
vn 0.000000 0.000000 1.000000
v 0.700000 0.660000 0.540000
vt 0.600000 0.600000
vn 0.000000 0.000000 1.000000
f 43/43/43 44/44/44 45/45/45
v 0.300000 0.580000 0.540000
vt 0.400000 0.400000
vn 0.000000 0.000000 1.000000
v 0.700000 0.660000 0.540000
vt 0.600000 0.600000
vn 0.000000 0.000000 1.000000
v 0.300000 0.660000 0.540000
vt 0.400000 0.600000
vn 0.000000 0.000000 1.000000
f 46/46/46 47/47/47 48/48/48
v 0.300000 0.580000 0.460000
vt 0.400000 0.400000
vn -1.000000 0.000000 0.000000
v 0.300000 0.580000 0.540000
vt 0.600000 0.400000
vn -1.000000 0.000000 0.000000
v 0.300000 0.660000 0.540000
vt 0.600000 0.600000
vn -1.000000 0.000000 0.000000
f 49/49/49 50/50/50 51/51/51
v 0.300000 0.580000 0.460000
vt 0.400000 0.400000
vn -1.000000 0.000000 0.000000
v 0.300000 0.660000 0.540000
vt 0.600000 0.600000
vn -1.000000 0.000000 0.000000
v 0.300000 0.660000 0.460000
vt 0.400000 0.600000
vn -1.000000 0.000000 0.000000
f 52/52/52 53/53/53 54/54/54
v 0.700000 0.580000 0.460000
vt 0.400000 0.400000
vn 1.000000 0.000000 0.000000
v 0.700000 0.660000 0.460000
vt 0.600000 0.400000
vn 1.000000 0.000000 0.000000
v 0.700000 0.660000 0.540000
vt 0.600000 0.600000
vn 1.000000 0.000000 0.000000
f 55/55/55 56/56/56 57/57/57
v 0.700000 0.580000 0.460000
vt 0.400000 0.400000
vn 1.000000 0.000000 0.000000
v 0.700000 0.660000 0.540000
vt 0.600000 0.600000
vn 1.000000 0.000000 0.000000
v 0.700000 0.580000 0.540000
vt 0.400000 0.600000
vn 1.000000 0.000000 0.000000
f 58/58/58 59/59/59 60/60/60
v 0.300000 0.580000 0.460000
vt 0.400000 0.400000
vn 0.000000 -1.000000 0.000000
v 0.700000 0.580000 0.460000
vt 0.600000 0.400000
vn 0.000000 -1.000000 0.000000
v 0.700000 0.580000 0.540000
vt 0.600000 0.600000
vn 0.000000 -1.000000 0.000000
f 61/61/61 62/62/62 63/63/63
v 0.300000 0.580000 0.460000
vt 0.400000 0.400000
vn 0.000000 -1.000000 0.000000
v 0.700000 0.580000 0.540000
vt 0.600000 0.600000
vn 0.000000 -1.000000 0.000000
v 0.300000 0.580000 0.540000
vt 0.400000 0.600000
vn 0.000000 -1.000000 0.000000
f 64/64/64 65/65/65 66/66/66
v 0.300000 0.660000 0.460000
vt 0.400000 0.400000
vn 0.000000 1.000000 0.000000
v 0.300000 0.660000 0.540000
vt 0.600000 0.400000
vn 0.000000 1.000000 0.000000
v 0.700000 0.660000 0.540000
vt 0.600000 0.600000
vn 0.000000 1.000000 0.000000
f 67/67/67 68/68/68 69/69/69
v 0.300000 0.660000 0.460000
vt 0.400000 0.400000
vn 0.000000 1.000000 0.000000
v 0.700000 0.660000 0.540000
vt 0.600000 0.600000
vn 0.000000 1.000000 0.000000
v 0.700000 0.660000 0.460000
vt 0.400000 0.600000
vn 0.000000 1.000000 0.000000
f 70/70/70 71/71/71 72/72/72
o dish
v 0.580000 0.660000 0.500000
vt 0.000000 0.700000
vn 0.700215 -0.700215 0.139281
v 0.780000 0.860000 0.500000
vt 0.000000 0.920000
vn 0.700215 -0.700215 0.139281
v 0.758686 0.860000 0.607151
vt 0.062500 0.920000
vn 0.700215 -0.700215 0.139281
f 73/73/73 74/74/74 75/75/75
v 0.580000 0.660000 0.500000
vt 0.000000 0.700000
vn 0.700215 -0.700215 0.139281
v 0.758686 0.860000 0.607151
vt 0.062500 0.920000
vn 0.700215 -0.700215 0.139281
v 0.573910 0.660000 0.530615
vt 0.062500 0.700000
vn 0.700215 -0.700215 0.139281
f 76/76/76 77/77/77 78/78/78
v 0.573910 0.660000 0.530615
vt 0.062500 0.700000
vn 0.593613 -0.700215 0.396640
v 0.758686 0.860000 0.607151
vt 0.062500 0.920000
vn 0.593613 -0.700215 0.396640
v 0.697990 0.860000 0.697990
vt 0.125000 0.920000
vn 0.593613 -0.700215 0.396640
f 79/79/79 80/80/80 81/81/81
v 0.573910 0.660000 0.530615
vt 0.062500 0.700000
vn 0.593613 -0.700215 0.396640
v 0.697990 0.860000 0.697990
vt 0.125000 0.920000
vn 0.593613 -0.700215 0.396640
v 0.556569 0.660000 0.556569
vt 0.125000 0.700000
vn 0.593613 -0.700215 0.396640
f 82/82/82 83/83/83 84/84/84
v 0.556569 0.660000 0.556569
vt 0.125000 0.700000
vn 0.396640 -0.700215 0.593613
v 0.697990 0.860000 0.697990
vt 0.125000 0.920000
vn 0.396640 -0.700215 0.593613
v 0.607151 0.860000 0.758686
vt 0.187500 0.920000
vn 0.396640 -0.700215 0.593613
f 85/85/85 86/86/86 87/87/87
v 0.556569 0.660000 0.556569
vt 0.125000 0.700000
vn 0.396640 -0.700215 0.593613
v 0.607151 0.860000 0.758686
vt 0.187500 0.920000
vn 0.396640 -0.700215 0.593613
v 0.530615 0.660000 0.573910
vt 0.187500 0.700000
vn 0.396640 -0.700215 0.593613
f 88/88/88 89/89/89 90/90/90
v 0.530615 0.660000 0.573910
vt 0.187500 0.700000
vn 0.139281 -0.700215 0.700215
v 0.607151 0.860000 0.758686
vt 0.187500 0.920000
vn 0.139281 -0.700215 0.700215
v 0.500000 0.860000 0.780000
vt 0.250000 0.920000
vn 0.139281 -0.700215 0.700215
f 91/91/91 92/92/92 93/93/93
v 0.530615 0.660000 0.573910
vt 0.187500 0.700000
vn 0.139281 -0.700215 0.700215
v 0.500000 0.860000 0.780000
vt 0.250000 0.920000
vn 0.139281 -0.700215 0.700215
v 0.500000 0.660000 0.580000
vt 0.250000 0.700000
vn 0.139281 -0.700215 0.700215
f 94/94/94 95/95/95 96/96/96
v 0.500000 0.660000 0.580000
vt 0.250000 0.700000
vn -0.139281 -0.700215 0.700215
v 0.500000 0.860000 0.780000
vt 0.250000 0.920000
vn -0.139281 -0.700215 0.700215
v 0.392849 0.860000 0.758686
vt 0.312500 0.920000
vn -0.139281 -0.700215 0.700215
f 97/97/97 98/98/98 99/99/99
v 0.500000 0.660000 0.580000
vt 0.250000 0.700000
vn -0.139281 -0.700215 0.700215
v 0.392849 0.860000 0.758686
vt 0.312500 0.920000
vn -0.139281 -0.700215 0.700215
v 0.469385 0.660000 0.573910
vt 0.312500 0.700000
vn -0.139281 -0.700215 0.700215
f 100/100/100 101/101/101 102/102/102
v 0.469385 0.660000 0.573910
vt 0.312500 0.700000
vn -0.396640 -0.700215 0.593613
v 0.392849 0.860000 0.758686
vt 0.312500 0.920000
vn -0.396640 -0.700215 0.593613
v 0.302010 0.860000 0.697990
vt 0.375000 0.920000
vn -0.396640 -0.700215 0.593613
f 103/103/103 104/104/104 105/105/105
v 0.469385 0.660000 0.573910
vt 0.312500 0.700000
vn -0.396640 -0.700215 0.593613
v 0.302010 0.860000 0.697990
vt 0.375000 0.920000
vn -0.396640 -0.700215 0.593613
v 0.443431 0.660000 0.556569
vt 0.375000 0.700000
vn -0.396640 -0.700215 0.593613
f 106/106/106 107/107/107 108/108/108
v 0.443431 0.660000 0.556569
vt 0.375000 0.700000
vn -0.593613 -0.700215 0.396640
v 0.302010 0.860000 0.697990
vt 0.375000 0.920000
vn -0.593613 -0.700215 0.396640
v 0.241314 0.860000 0.607151
vt 0.437500 0.920000
vn -0.593613 -0.700215 0.396640
f 109/109/109 110/110/110 111/111/111
v 0.443431 0.660000 0.556569
vt 0.375000 0.700000
vn -0.593613 -0.700215 0.396640
v 0.241314 0.860000 0.607151
vt 0.437500 0.920000
vn -0.593613 -0.700215 0.396640
v 0.426090 0.660000 0.530615
vt 0.437500 0.700000
vn -0.593613 -0.700215 0.396640
f 112/112/112 113/113/113 114/114/114
v 0.426090 0.660000 0.530615
vt 0.437500 0.700000
vn -0.700215 -0.700215 0.139281
v 0.241314 0.860000 0.607151
vt 0.437500 0.920000
vn -0.700215 -0.700215 0.139281
v 0.220000 0.860000 0.500000
vt 0.500000 0.920000
vn -0.700215 -0.700215 0.139281
f 115/115/115 116/116/116 117/117/117
v 0.426090 0.660000 0.530615
vt 0.437500 0.700000
vn -0.700215 -0.700215 0.139281
v 0.220000 0.860000 0.500000
vt 0.500000 0.920000
vn -0.700215 -0.700215 0.139281
v 0.420000 0.660000 0.500000
vt 0.500000 0.700000
vn -0.700215 -0.700215 0.139281
f 118/118/118 119/119/119 120/120/120
v 0.420000 0.660000 0.500000
vt 0.500000 0.700000
vn -0.700215 -0.700215 -0.139281
v 0.220000 0.860000 0.500000
vt 0.500000 0.920000
vn -0.700215 -0.700215 -0.139281
v 0.241314 0.860000 0.392849
vt 0.562500 0.920000
vn -0.700215 -0.700215 -0.139281
f 121/121/121 122/122/122 123/123/123
v 0.420000 0.660000 0.500000
vt 0.500000 0.700000
vn -0.700215 -0.700215 -0.139281
v 0.241314 0.860000 0.392849
vt 0.562500 0.920000
vn -0.700215 -0.700215 -0.139281
v 0.426090 0.660000 0.469385
vt 0.562500 0.700000
vn -0.700215 -0.700215 -0.139281
f 124/124/124 125/125/125 126/126/126
v 0.426090 0.660000 0.469385
vt 0.562500 0.700000
vn -0.593613 -0.700215 -0.396640
v 0.241314 0.860000 0.392849
vt 0.562500 0.920000
vn -0.593613 -0.700215 -0.396640
v 0.302010 0.860000 0.302010
vt 0.625000 0.920000
vn -0.593613 -0.700215 -0.396640
f 127/127/127 128/128/128 129/129/129
v 0.426090 0.660000 0.469385
vt 0.562500 0.700000
vn -0.593613 -0.700215 -0.396640
v 0.302010 0.860000 0.302010
vt 0.625000 0.920000
vn -0.593613 -0.700215 -0.396640
v 0.443431 0.660000 0.443431
vt 0.625000 0.700000
vn -0.593613 -0.700215 -0.396640
f 130/130/130 131/131/131 132/132/132
v 0.443431 0.660000 0.443431
vt 0.625000 0.700000
vn -0.396640 -0.700215 -0.593613
v 0.302010 0.860000 0.302010
vt 0.625000 0.920000
vn -0.396640 -0.700215 -0.593613
v 0.392849 0.860000 0.241314
vt 0.687500 0.920000
vn -0.396640 -0.700215 -0.593613
f 133/133/133 134/134/134 135/135/135
v 0.443431 0.660000 0.443431
vt 0.625000 0.700000
vn -0.396640 -0.700215 -0.593613
v 0.392849 0.860000 0.241314
vt 0.687500 0.920000
vn -0.396640 -0.700215 -0.593613
v 0.469385 0.660000 0.426090
vt 0.687500 0.700000
vn -0.396640 -0.700215 -0.593613
f 136/136/136 137/137/137 138/138/138
v 0.469385 0.660000 0.426090
vt 0.687500 0.700000
vn -0.139281 -0.700215 -0.700215
v 0.392849 0.860000 0.241314
vt 0.687500 0.920000
vn -0.139281 -0.700215 -0.700215
v 0.500000 0.860000 0.220000
vt 0.750000 0.920000
vn -0.139281 -0.700215 -0.700215
f 139/139/139 140/140/140 141/141/141
v 0.469385 0.660000 0.426090
vt 0.687500 0.700000
vn -0.139281 -0.700215 -0.700215
v 0.500000 0.860000 0.220000
vt 0.750000 0.920000
vn -0.139281 -0.700215 -0.700215
v 0.500000 0.660000 0.420000
vt 0.750000 0.700000
vn -0.139281 -0.700215 -0.700215
f 142/142/142 143/143/143 144/144/144
v 0.500000 0.660000 0.420000
vt 0.750000 0.700000
vn 0.139281 -0.700215 -0.700215
v 0.500000 0.860000 0.220000
vt 0.750000 0.920000
vn 0.139281 -0.700215 -0.700215
v 0.607151 0.860000 0.241314
vt 0.812500 0.920000
vn 0.139281 -0.700215 -0.700215
f 145/145/145 146/146/146 147/147/147
v 0.500000 0.660000 0.420000
vt 0.750000 0.700000
vn 0.139281 -0.700215 -0.700215
v 0.607151 0.860000 0.241314
vt 0.812500 0.920000
vn 0.139281 -0.700215 -0.700215
v 0.530615 0.660000 0.426090
vt 0.812500 0.700000
vn 0.139281 -0.700215 -0.700215
f 148/148/148 149/149/149 150/150/150
v 0.530615 0.660000 0.426090
vt 0.812500 0.700000
vn 0.396640 -0.700215 -0.593613
v 0.607151 0.860000 0.241314
vt 0.812500 0.920000
vn 0.396640 -0.700215 -0.593613
v 0.697990 0.860000 0.302010
vt 0.875000 0.920000
vn 0.396640 -0.700215 -0.593613
f 151/151/151 152/152/152 153/153/153
v 0.530615 0.660000 0.426090
vt 0.812500 0.700000
vn 0.396640 -0.700215 -0.593613
v 0.697990 0.860000 0.302010
vt 0.875000 0.920000
vn 0.396640 -0.700215 -0.593613
v 0.556569 0.660000 0.443431
vt 0.875000 0.700000
vn 0.396640 -0.700215 -0.593613
f 154/154/154 155/155/155 156/156/156
v 0.556569 0.660000 0.443431
vt 0.875000 0.700000
vn 0.593613 -0.700215 -0.396640
v 0.697990 0.860000 0.302010
vt 0.875000 0.920000
vn 0.593613 -0.700215 -0.396640
v 0.758686 0.860000 0.392849
vt 0.937500 0.920000
vn 0.593613 -0.700215 -0.396640
f 157/157/157 158/158/158 159/159/159
v 0.556569 0.660000 0.443431
vt 0.875000 0.700000
vn 0.593613 -0.700215 -0.396640
v 0.758686 0.860000 0.392849
vt 0.937500 0.920000
vn 0.593613 -0.700215 -0.396640
v 0.573910 0.660000 0.469385
vt 0.937500 0.700000
vn 0.593613 -0.700215 -0.396640
f 160/160/160 161/161/161 162/162/162
v 0.573910 0.660000 0.469385
vt 0.937500 0.700000
vn 0.700215 -0.700215 -0.139281
v 0.758686 0.860000 0.392849
vt 0.937500 0.920000
vn 0.700215 -0.700215 -0.139281
v 0.780000 0.860000 0.500000
vt 1.000000 0.920000
vn 0.700215 -0.700215 -0.139281
f 163/163/163 164/164/164 165/165/165
v 0.573910 0.660000 0.469385
vt 0.937500 0.700000
vn 0.700215 -0.700215 -0.139281
v 0.780000 0.860000 0.500000
vt 1.000000 0.920000
vn 0.700215 -0.700215 -0.139281
v 0.580000 0.660000 0.500000
vt 1.000000 0.700000
vn 0.700215 -0.700215 -0.139281
f 166/166/166 167/167/167 168/168/168
v 0.550000 0.660000 0.500000
vt 0.000000 0.700000
vn -0.638913 0.758709 -0.127088
v 0.546194 0.660000 0.519134
vt 0.062500 0.700000
vn -0.638913 0.758709 -0.127088
v 0.721731 0.820000 0.591844
vt 0.062500 0.920000
vn -0.638913 0.758709 -0.127088
f 169/169/169 170/170/170 171/171/171
v 0.550000 0.660000 0.500000
vt 0.000000 0.700000
vn -0.638913 0.758709 -0.127088
v 0.721731 0.820000 0.591844
vt 0.062500 0.920000
vn -0.638913 0.758709 -0.127088
v 0.740000 0.820000 0.500000
vt 0.000000 0.920000
vn -0.638913 0.758709 -0.127088
f 172/172/172 173/173/173 174/174/174
v 0.546194 0.660000 0.519134
vt 0.062500 0.700000
vn -0.541644 0.758709 -0.361915
v 0.535355 0.660000 0.535355
vt 0.125000 0.700000
vn -0.541644 0.758709 -0.361915
v 0.669706 0.820000 0.669706
vt 0.125000 0.920000
vn -0.541644 0.758709 -0.361915
f 175/175/175 176/176/176 177/177/177
v 0.546194 0.660000 0.519134
vt 0.062500 0.700000
vn -0.541644 0.758709 -0.361915
v 0.669706 0.820000 0.669706
vt 0.125000 0.920000
vn -0.541644 0.758709 -0.361915
v 0.721731 0.820000 0.591844
vt 0.062500 0.920000
vn -0.541644 0.758709 -0.361915
f 178/178/178 179/179/179 180/180/180
v 0.535355 0.660000 0.535355
vt 0.125000 0.700000
vn -0.361915 0.758709 -0.541644
v 0.519134 0.660000 0.546194
vt 0.187500 0.700000
vn -0.361915 0.758709 -0.541644
v 0.591844 0.820000 0.721731
vt 0.187500 0.920000
vn -0.361915 0.758709 -0.541644
f 181/181/181 182/182/182 183/183/183
v 0.535355 0.660000 0.535355
vt 0.125000 0.700000
vn -0.361915 0.758709 -0.541644
v 0.591844 0.820000 0.721731
vt 0.187500 0.920000
vn -0.361915 0.758709 -0.541644
v 0.669706 0.820000 0.669706
vt 0.125000 0.920000
vn -0.361915 0.758709 -0.541644
f 184/184/184 185/185/185 186/186/186
v 0.519134 0.660000 0.546194
vt 0.187500 0.700000
vn -0.127088 0.758709 -0.638913
v 0.500000 0.660000 0.550000
vt 0.250000 0.700000
vn -0.127088 0.758709 -0.638913
v 0.500000 0.820000 0.740000
vt 0.250000 0.920000
vn -0.127088 0.758709 -0.638913
f 187/187/187 188/188/188 189/189/189
v 0.519134 0.660000 0.546194
vt 0.187500 0.700000
vn -0.127088 0.758709 -0.638913
v 0.500000 0.820000 0.740000
vt 0.250000 0.920000
vn -0.127088 0.758709 -0.638913
v 0.591844 0.820000 0.721731
vt 0.187500 0.920000
vn -0.127088 0.758709 -0.638913
f 190/190/190 191/191/191 192/192/192
v 0.500000 0.660000 0.550000
vt 0.250000 0.700000
vn 0.127088 0.758709 -0.638913
v 0.480866 0.660000 0.546194
vt 0.312500 0.700000
vn 0.127088 0.758709 -0.638913
v 0.408156 0.820000 0.721731
vt 0.312500 0.920000
vn 0.127088 0.758709 -0.638913
f 193/193/193 194/194/194 195/195/195
v 0.500000 0.660000 0.550000
vt 0.250000 0.700000
vn 0.127088 0.758709 -0.638913
v 0.408156 0.820000 0.721731
vt 0.312500 0.920000
vn 0.127088 0.758709 -0.638913
v 0.500000 0.820000 0.740000
vt 0.250000 0.920000
vn 0.127088 0.758709 -0.638913
f 196/196/196 197/197/197 198/198/198
v 0.480866 0.660000 0.546194
vt 0.312500 0.700000
vn 0.361915 0.758709 -0.541644
v 0.464645 0.660000 0.535355
vt 0.375000 0.700000
vn 0.361915 0.758709 -0.541644
v 0.330294 0.820000 0.669706
vt 0.375000 0.920000
vn 0.361915 0.758709 -0.541644
f 199/199/199 200/200/200 201/201/201
v 0.480866 0.660000 0.546194
vt 0.312500 0.700000
vn 0.361915 0.758709 -0.541644
v 0.330294 0.820000 0.669706
vt 0.375000 0.920000
vn 0.361915 0.758709 -0.541644
v 0.408156 0.820000 0.721731
vt 0.312500 0.920000
vn 0.361915 0.758709 -0.541644
f 202/202/202 203/203/203 204/204/204
v 0.464645 0.660000 0.535355
vt 0.375000 0.700000
vn 0.541644 0.758709 -0.361915
v 0.453806 0.660000 0.519134
vt 0.437500 0.700000
vn 0.541644 0.758709 -0.361915
v 0.278269 0.820000 0.591844
vt 0.437500 0.920000
vn 0.541644 0.758709 -0.361915
f 205/205/205 206/206/206 207/207/207
v 0.464645 0.660000 0.535355
vt 0.375000 0.700000
vn 0.541644 0.758709 -0.361915
v 0.278269 0.820000 0.591844
vt 0.437500 0.920000
vn 0.541644 0.758709 -0.361915
v 0.330294 0.820000 0.669706
vt 0.375000 0.920000
vn 0.541644 0.758709 -0.361915
f 208/208/208 209/209/209 210/210/210
v 0.453806 0.660000 0.519134
vt 0.437500 0.700000
vn 0.638913 0.758709 -0.127088
v 0.450000 0.660000 0.500000
vt 0.500000 0.700000
vn 0.638913 0.758709 -0.127088
v 0.260000 0.820000 0.500000
vt 0.500000 0.920000
vn 0.638913 0.758709 -0.127088
f 211/211/211 212/212/212 213/213/213
v 0.453806 0.660000 0.519134
vt 0.437500 0.700000
vn 0.638913 0.758709 -0.127088
v 0.260000 0.820000 0.500000
vt 0.500000 0.920000
vn 0.638913 0.758709 -0.127088
v 0.278269 0.820000 0.591844
vt 0.437500 0.920000
vn 0.638913 0.758709 -0.127088
f 214/214/214 215/215/215 216/216/216
v 0.450000 0.660000 0.500000
vt 0.500000 0.700000
vn 0.638913 0.758709 0.127088
v 0.453806 0.660000 0.480866
vt 0.562500 0.700000
vn 0.638913 0.758709 0.127088
v 0.278269 0.820000 0.408156
vt 0.562500 0.920000
vn 0.638913 0.758709 0.127088
f 217/217/217 218/218/218 219/219/219
v 0.450000 0.660000 0.500000
vt 0.500000 0.700000
vn 0.638913 0.758709 0.127088
v 0.278269 0.820000 0.408156
vt 0.562500 0.920000
vn 0.638913 0.758709 0.127088
v 0.260000 0.820000 0.500000
vt 0.500000 0.920000
vn 0.638913 0.758709 0.127088
f 220/220/220 221/221/221 222/222/222
v 0.453806 0.660000 0.480866
vt 0.562500 0.700000
vn 0.541644 0.758709 0.361915
v 0.464645 0.660000 0.464645
vt 0.625000 0.700000
vn 0.541644 0.758709 0.361915
v 0.330294 0.820000 0.330294
vt 0.625000 0.920000
vn 0.541644 0.758709 0.361915
f 223/223/223 224/224/224 225/225/225
v 0.453806 0.660000 0.480866
vt 0.562500 0.700000
vn 0.541644 0.758709 0.361915
v 0.330294 0.820000 0.330294
vt 0.625000 0.920000
vn 0.541644 0.758709 0.361915
v 0.278269 0.820000 0.408156
vt 0.562500 0.920000
vn 0.541644 0.758709 0.361915
f 226/226/226 227/227/227 228/228/228
v 0.464645 0.660000 0.464645
vt 0.625000 0.700000
vn 0.361915 0.758709 0.541644
v 0.480866 0.660000 0.453806
vt 0.687500 0.700000
vn 0.361915 0.758709 0.541644
v 0.408156 0.820000 0.278269
vt 0.687500 0.920000
vn 0.361915 0.758709 0.541644
f 229/229/229 230/230/230 231/231/231
v 0.464645 0.660000 0.464645
vt 0.625000 0.700000
vn 0.361915 0.758709 0.541644
v 0.408156 0.820000 0.278269
vt 0.687500 0.920000
vn 0.361915 0.758709 0.541644
v 0.330294 0.820000 0.330294
vt 0.625000 0.920000
vn 0.361915 0.758709 0.541644
f 232/232/232 233/233/233 234/234/234
v 0.480866 0.660000 0.453806
vt 0.687500 0.700000
vn 0.127088 0.758709 0.638913
v 0.500000 0.660000 0.450000
vt 0.750000 0.700000
vn 0.127088 0.758709 0.638913
v 0.500000 0.820000 0.260000
vt 0.750000 0.920000
vn 0.127088 0.758709 0.638913
f 235/235/235 236/236/236 237/237/237
v 0.480866 0.660000 0.453806
vt 0.687500 0.700000
vn 0.127088 0.758709 0.638913
v 0.500000 0.820000 0.260000
vt 0.750000 0.920000
vn 0.127088 0.758709 0.638913
v 0.408156 0.820000 0.278269
vt 0.687500 0.920000
vn 0.127088 0.758709 0.638913
f 238/238/238 239/239/239 240/240/240
v 0.500000 0.660000 0.450000
vt 0.750000 0.700000
vn -0.127088 0.758709 0.638913
v 0.519134 0.660000 0.453806
vt 0.812500 0.700000
vn -0.127088 0.758709 0.638913
v 0.591844 0.820000 0.278269
vt 0.812500 0.920000
vn -0.127088 0.758709 0.638913
f 241/241/241 242/242/242 243/243/243
v 0.500000 0.660000 0.450000
vt 0.750000 0.700000
vn -0.127088 0.758709 0.638913
v 0.591844 0.820000 0.278269
vt 0.812500 0.920000
vn -0.127088 0.758709 0.638913
v 0.500000 0.820000 0.260000
vt 0.750000 0.920000
vn -0.127088 0.758709 0.638913
f 244/244/244 245/245/245 246/246/246
v 0.519134 0.660000 0.453806
vt 0.812500 0.700000
vn -0.361915 0.758709 0.541644
v 0.535355 0.660000 0.464645
vt 0.875000 0.700000
vn -0.361915 0.758709 0.541644
v 0.669706 0.820000 0.330294
vt 0.875000 0.920000
vn -0.361915 0.758709 0.541644
f 247/247/247 248/248/248 249/249/249
v 0.519134 0.660000 0.453806
vt 0.812500 0.700000
vn -0.361915 0.758709 0.541644
v 0.669706 0.820000 0.330294
vt 0.875000 0.920000
vn -0.361915 0.758709 0.541644
v 0.591844 0.820000 0.278269
vt 0.812500 0.920000
vn -0.361915 0.758709 0.541644
f 250/250/250 251/251/251 252/252/252
v 0.535355 0.660000 0.464645
vt 0.875000 0.700000
vn -0.541644 0.758709 0.361915
v 0.546194 0.660000 0.480866
vt 0.937500 0.700000
vn -0.541644 0.758709 0.361915
v 0.721731 0.820000 0.408156
vt 0.937500 0.920000
vn -0.541644 0.758709 0.361915
f 253/253/253 254/254/254 255/255/255
v 0.535355 0.660000 0.464645
vt 0.875000 0.700000
vn -0.541644 0.758709 0.361915
v 0.721731 0.820000 0.408156
vt 0.937500 0.920000
vn -0.541644 0.758709 0.361915
v 0.669706 0.820000 0.330294
vt 0.875000 0.920000
vn -0.541644 0.758709 0.361915
f 256/256/256 257/257/257 258/258/258
v 0.546194 0.660000 0.480866
vt 0.937500 0.700000
vn -0.638913 0.758709 0.127088
v 0.550000 0.660000 0.500000
vt 1.000000 0.700000
vn -0.638913 0.758709 0.127088
v 0.740000 0.820000 0.500000
vt 1.000000 0.920000
vn -0.638913 0.758709 0.127088
f 259/259/259 260/260/260 261/261/261
v 0.546194 0.660000 0.480866
vt 0.937500 0.700000
vn -0.638913 0.758709 0.127088
v 0.740000 0.820000 0.500000
vt 1.000000 0.920000
vn -0.638913 0.758709 0.127088
v 0.721731 0.820000 0.408156
vt 0.937500 0.920000
vn -0.638913 0.758709 0.127088
f 262/262/262 263/263/263 264/264/264
v 0.500000 0.660000 0.500000
vt 0.800000 0.220000
vn 0.000000 -1.000000 0.000000
v 0.580000 0.660000 0.500000
vt 1.000000 0.220000
vn 0.000000 -1.000000 0.000000
v 0.573910 0.660000 0.530615
vt 0.984776 0.296537
vn 0.000000 -1.000000 0.000000
f 265/265/265 266/266/266 267/267/267
v 0.500000 0.660000 0.500000
vt 0.800000 0.220000
vn 0.000000 -1.000000 0.000000
v 0.573910 0.660000 0.530615
vt 0.984776 0.296537
vn 0.000000 -1.000000 0.000000
v 0.556569 0.660000 0.556569
vt 0.941421 0.361421
vn 0.000000 -1.000000 0.000000
f 268/268/268 269/269/269 270/270/270
v 0.500000 0.660000 0.500000
vt 0.800000 0.220000
vn 0.000000 -1.000000 0.000000
v 0.556569 0.660000 0.556569
vt 0.941421 0.361421
vn 0.000000 -1.000000 0.000000
v 0.530615 0.660000 0.573910
vt 0.876537 0.404776
vn 0.000000 -1.000000 0.000000
f 271/271/271 272/272/272 273/273/273
v 0.500000 0.660000 0.500000
vt 0.800000 0.220000
vn 0.000000 -1.000000 0.000000
v 0.530615 0.660000 0.573910
vt 0.876537 0.404776
vn 0.000000 -1.000000 0.000000
v 0.500000 0.660000 0.580000
vt 0.800000 0.420000
vn 0.000000 -1.000000 0.000000
f 274/274/274 275/275/275 276/276/276
v 0.500000 0.660000 0.500000
vt 0.800000 0.220000
vn 0.000000 -1.000000 0.000000
v 0.500000 0.660000 0.580000
vt 0.800000 0.420000
vn 0.000000 -1.000000 0.000000
v 0.469385 0.660000 0.573910
vt 0.723463 0.404776
vn 0.000000 -1.000000 0.000000
f 277/277/277 278/278/278 279/279/279
v 0.500000 0.660000 0.500000
vt 0.800000 0.220000
vn 0.000000 -1.000000 0.000000
v 0.469385 0.660000 0.573910
vt 0.723463 0.404776
vn 0.000000 -1.000000 0.000000
v 0.443431 0.660000 0.556569
vt 0.658579 0.361421
vn 0.000000 -1.000000 0.000000
f 280/280/280 281/281/281 282/282/282
v 0.500000 0.660000 0.500000
vt 0.800000 0.220000
vn 0.000000 -1.000000 0.000000
v 0.443431 0.660000 0.556569
vt 0.658579 0.361421
vn 0.000000 -1.000000 0.000000
v 0.426090 0.660000 0.530615
vt 0.615224 0.296537
vn 0.000000 -1.000000 0.000000
f 283/283/283 284/284/284 285/285/285
v 0.500000 0.660000 0.500000
vt 0.800000 0.220000
vn 0.000000 -1.000000 0.000000
v 0.426090 0.660000 0.530615
vt 0.615224 0.296537
vn 0.000000 -1.000000 0.000000
v 0.420000 0.660000 0.500000
vt 0.600000 0.220000
vn 0.000000 -1.000000 0.000000
f 286/286/286 287/287/287 288/288/288
v 0.500000 0.660000 0.500000
vt 0.800000 0.220000
vn -0.000000 -1.000000 0.000000
v 0.420000 0.660000 0.500000
vt 0.600000 0.220000
vn -0.000000 -1.000000 0.000000
v 0.426090 0.660000 0.469385
vt 0.615224 0.143463
vn -0.000000 -1.000000 0.000000
f 289/289/289 290/290/290 291/291/291
v 0.500000 0.660000 0.500000
vt 0.800000 0.220000
vn 0.000000 -1.000000 0.000000
v 0.426090 0.660000 0.469385
vt 0.615224 0.143463
vn 0.000000 -1.000000 0.000000
v 0.443431 0.660000 0.443431
vt 0.658579 0.078579
vn 0.000000 -1.000000 0.000000
f 292/292/292 293/293/293 294/294/294
v 0.500000 0.660000 0.500000
vt 0.800000 0.220000
vn 0.000000 -1.000000 0.000000
v 0.443431 0.660000 0.443431
vt 0.658579 0.078579
vn 0.000000 -1.000000 0.000000
v 0.469385 0.660000 0.426090
vt 0.723463 0.035224
vn 0.000000 -1.000000 0.000000
f 295/295/295 296/296/296 297/297/297
v 0.500000 0.660000 0.500000
vt 0.800000 0.220000
vn 0.000000 -1.000000 -0.000000
v 0.469385 0.660000 0.426090
vt 0.723463 0.035224
vn 0.000000 -1.000000 -0.000000
v 0.500000 0.660000 0.420000
vt 0.800000 0.020000
vn 0.000000 -1.000000 -0.000000
f 298/298/298 299/299/299 300/300/300
v 0.500000 0.660000 0.500000
vt 0.800000 0.220000
vn 0.000000 -1.000000 0.000000
v 0.500000 0.660000 0.420000
vt 0.800000 0.020000
vn 0.000000 -1.000000 0.000000
v 0.530615 0.660000 0.426090
vt 0.876537 0.035224
vn 0.000000 -1.000000 0.000000
f 301/301/301 302/302/302 303/303/303
v 0.500000 0.660000 0.500000
vt 0.800000 0.220000
vn 0.000000 -1.000000 0.000000
v 0.530615 0.660000 0.426090
vt 0.876537 0.035224
vn 0.000000 -1.000000 0.000000
v 0.556569 0.660000 0.443431
vt 0.941421 0.078579
vn 0.000000 -1.000000 0.000000
f 304/304/304 305/305/305 306/306/306
v 0.500000 0.660000 0.500000
vt 0.800000 0.220000
vn 0.000000 -1.000000 0.000000
v 0.556569 0.660000 0.443431
vt 0.941421 0.078579
vn 0.000000 -1.000000 0.000000
v 0.573910 0.660000 0.469385
vt 0.984776 0.143463
vn 0.000000 -1.000000 0.000000
f 307/307/307 308/308/308 309/309/309
v 0.500000 0.660000 0.500000
vt 0.800000 0.220000
vn 0.000000 -1.000000 0.000000
v 0.573910 0.660000 0.469385
vt 0.984776 0.143463
vn 0.000000 -1.000000 0.000000
v 0.580000 0.660000 0.500000
vt 1.000000 0.220000
vn 0.000000 -1.000000 0.000000
f 310/310/310 311/311/311 312/312/312
